<svg width="99" height="13" viewBox="0 0 99 13" fill="none" xmlns="http://www.w3.org/2000/svg">
<path d="M4.368 12.196C6.762 12.196 8.176 10.754 8.176 9.06C8.176 7.562 7.35 6.764 6.09 6.246L4.732 5.672C3.85 5.322 3.122 5.056 3.122 4.314C3.122 3.628 3.696 3.222 4.606 3.222C5.46 3.222 6.146 3.53 6.804 4.076L7.854 2.774C7.014 1.92 5.81 1.444 4.606 1.444C2.506 1.444 1.022 2.746 1.022 4.44C1.022 5.952 2.072 6.792 3.122 7.226L4.508 7.814C5.432 8.206 6.062 8.444 6.062 9.214C6.062 9.942 5.488 10.404 4.41 10.404C3.5 10.404 2.52 9.942 1.778 9.256L0.588 10.684C1.596 11.65 2.982 12.196 4.368 12.196ZM13.1183 12.196C15.0783 12.196 16.8843 10.684 16.8843 8.08C16.8843 5.476 15.0783 3.964 13.1183 3.964C11.1583 3.964 9.35233 5.476 9.35233 8.08C9.35233 10.684 11.1583 12.196 13.1183 12.196ZM13.1183 10.516C12.0543 10.516 11.4523 9.564 11.4523 8.08C11.4523 6.61 12.0543 5.644 13.1183 5.644C14.1823 5.644 14.7843 6.61 14.7843 8.08C14.7843 9.564 14.1823 10.516 13.1183 10.516ZM21.868 12.196C24.262 12.196 25.676 10.754 25.676 9.06C25.676 7.562 24.85 6.764 23.59 6.246L22.232 5.672C21.35 5.322 20.622 5.056 20.622 4.314C20.622 3.628 21.196 3.222 22.106 3.222C22.96 3.222 23.646 3.53 24.304 4.076L25.354 2.774C24.514 1.92 23.31 1.444 22.106 1.444C20.006 1.444 18.522 2.746 18.522 4.44C18.522 5.952 19.572 6.792 20.622 7.226L22.008 7.814C22.932 8.206 23.562 8.444 23.562 9.214C23.562 9.942 22.988 10.404 21.91 10.404C21 10.404 20.02 9.942 19.278 9.256L18.088 10.684C19.096 11.65 20.482 12.196 21.868 12.196ZM32.9362 6.596C33.2442 5.518 33.5522 4.342 33.8182 3.208H33.8882C34.1822 4.328 34.4622 5.518 34.7842 6.596L35.0922 7.73H32.6282L32.9362 6.596ZM29.3522 12H31.4522L32.1802 9.34H35.5402L36.2682 12H38.4382L35.1062 1.626H32.6702L29.3522 12ZM41.415 12.196C41.905 12.196 42.241 12.112 42.479 12.014L42.227 10.488C42.087 10.516 42.031 10.516 41.947 10.516C41.751 10.516 41.541 10.362 41.541 9.886V0.827999H39.483V9.802C39.483 11.258 39.987 12.196 41.415 12.196ZM43.899 12H45.957V4.16H43.899V12ZM44.935 2.9C45.635 2.9 46.125 2.452 46.125 1.766C46.125 1.094 45.635 0.645999 44.935 0.645999C44.221 0.645999 43.731 1.094 43.731 1.766C43.731 2.452 44.221 2.9 44.935 2.9ZM48.1509 12H50.2089V6.61C50.7549 6.022 51.2589 5.728 51.7069 5.728C52.4489 5.728 52.8129 6.148 52.8129 7.366V12H54.8569V6.61C55.4169 6.022 55.9209 5.728 56.3689 5.728C57.1109 5.728 57.4609 6.148 57.4609 7.366V12H59.5189V7.114C59.5189 5.14 58.7489 3.964 57.0829 3.964C56.0609 3.964 55.3049 4.58 54.5909 5.336C54.2129 4.468 53.5549 3.964 52.4349 3.964C51.4129 3.964 50.6849 4.524 50.0269 5.21H49.9849L49.8309 4.16H48.1509V12ZM65.0611 12.196C66.0271 12.196 67.0211 11.86 67.7911 11.328L67.0911 10.068C66.5311 10.418 65.9711 10.614 65.3271 10.614C64.1651 10.614 63.3251 9.942 63.1571 8.654H67.9871C68.0431 8.472 68.0851 8.094 68.0851 7.702C68.0851 5.546 66.9651 3.964 64.8091 3.964C62.9471 3.964 61.1551 5.546 61.1551 8.08C61.1551 10.67 62.8631 12.196 65.0611 12.196ZM63.1291 7.282C63.2831 6.148 64.0111 5.56 64.8371 5.56C65.8451 5.56 66.3211 6.232 66.3211 7.282H63.1291ZM69.7798 12H71.8378V6.61C72.4118 6.036 72.8178 5.728 73.4618 5.728C74.2318 5.728 74.5678 6.148 74.5678 7.366V12H76.6258V7.114C76.6258 5.14 75.8978 3.964 74.2038 3.964C73.1398 3.964 72.3418 4.524 71.6558 5.196H71.6138L71.4598 4.16H69.7798V12ZM81.6186 12.196C82.3046 12.196 82.8506 12.042 83.2706 11.902L82.9346 10.404C82.7246 10.488 82.4166 10.572 82.1646 10.572C81.4646 10.572 81.1006 10.152 81.1006 9.256V5.784H83.0326V4.16H81.1006V2.046H79.3926L79.1546 4.16L77.9366 4.258V5.784H79.0426V9.256C79.0426 11.006 79.7566 12.196 81.6186 12.196ZM87.6437 12.196C89.6037 12.196 91.4097 10.684 91.4097 8.08C91.4097 5.476 89.6037 3.964 87.6437 3.964C85.6837 3.964 83.8777 5.476 83.8777 8.08C83.8777 10.684 85.6837 12.196 87.6437 12.196ZM87.6437 10.516C86.5797 10.516 85.9777 9.564 85.9777 8.08C85.9777 6.61 86.5797 5.644 87.6437 5.644C88.7077 5.644 89.3097 6.61 89.3097 8.08C89.3097 9.564 88.7077 10.516 87.6437 10.516ZM95.303 12.196C97.347 12.196 98.425 11.09 98.425 9.718C98.425 8.262 97.277 7.744 96.241 7.352C95.415 7.044 94.687 6.834 94.687 6.26C94.687 5.812 95.023 5.504 95.737 5.504C96.311 5.504 96.857 5.77 97.417 6.176L98.341 4.93C97.697 4.44 96.815 3.964 95.681 3.964C93.889 3.964 92.755 4.958 92.755 6.358C92.755 7.674 93.861 8.276 94.855 8.654C95.681 8.976 96.493 9.242 96.493 9.83C96.493 10.32 96.143 10.656 95.359 10.656C94.631 10.656 93.959 10.348 93.259 9.802L92.321 11.09C93.105 11.734 94.253 12.196 95.303 12.196Z" fill="#E54B25"/>
</svg>
